<?xml version="1.0" encoding="UTF-8" standalone="no"?>
<!-- Created with Inkscape (http://www.inkscape.org/) -->

<svg
   width="285.75mm"
   height="285.75mm"
   viewBox="0 0 285.75 285.75"
   version="1.1"
   id="svg1"
   sodipodi:docname="Logo zwart wit achtergrond.svg"
   inkscape:version="1.4.2 (f4327f4, 2025-05-13)"
   xmlns:inkscape="http://www.inkscape.org/namespaces/inkscape"
   xmlns:sodipodi="http://sodipodi.sourceforge.net/DTD/sodipodi-0.dtd"
   xmlns="http://www.w3.org/2000/svg"
   xmlns:svg="http://www.w3.org/2000/svg">
  <sodipodi:namedview
     id="namedview1"
     pagecolor="#ffffff"
     bordercolor="#000000"
     borderopacity="0.25"
     inkscape:showpageshadow="2"
     inkscape:pageopacity="0.0"
     inkscape:pagecheckerboard="0"
     inkscape:deskcolor="#d1d1d1"
     inkscape:document-units="mm"
     inkscape:zoom="0.3823664"
     inkscape:cx="524.36615"
     inkscape:cy="545.28849"
     inkscape:window-width="1440"
     inkscape:window-height="829"
     inkscape:window-x="-8"
     inkscape:window-y="-8"
     inkscape:window-maximized="1"
     inkscape:current-layer="layer1" />
  <defs
     id="defs1" />
  <g
     inkscape:label="Laag 1"
     inkscape:groupmode="layer"
     id="layer1"
     transform="translate(304.33939,-0.97858334)">
    <path
       id="path47"
       style="baseline-shift:baseline;display:inline;overflow:visible;opacity:1;vector-effect:none;fill:#ffffff;stroke-width:2.3041;stroke-linecap:round;stroke-linejoin:round;enable-background:accumulate;stop-color:#000000;fill-opacity:1"
       d="m -207.52404,67.706616 -11.46263,53.848284 c -0.27266,1.06357 -0.50206,2.14343 -0.68821,3.23744 l -0.29886,1.40144 c -0.25965,1.22115 -0.33126,2.43847 -0.23456,3.62202 -0.0251,0.58052 -0.038,1.1641 -0.038,1.75031 3e-5,22.36424 18.39852,40.76275 40.76276,40.76275 h 9.59804 c 1.57301,0 2.11196,1.38417 1.75863,3.04457 l -4.67221,21.9501 h 0.007 l -5.06871,23.80755 h 25.55666 l 5.06871,-23.80755 h 3.79349 c 22.36424,0 40.76278,-18.39854 40.76278,-40.76278 -2e-5,-22.36424 -18.39854,-40.76276 -40.76278,-40.76276 h -9.59804 c -1.56156,0 -2.10364,-1.36575 -1.76577,-3.01002 0.002,-0.0115 0.005,-0.023 0.007,-0.0346 l 4.67222,-21.950096 h -29.35611 c -2.57734,0 -5.10134,0.244212 -7.55127,0.710837 l 5.06632,-23.807548 z m 28.04041,48.091374 h 21.62981 c 1.573,0 2.11196,1.38414 1.75862,3.04454 l -4.671,21.94893 h 17.32312 c 8.85615,0 15.76932,6.91314 15.76932,15.76929 0,8.85614 -6.91317,15.76811 -15.76932,15.76811 h -21.6298 c -1.55485,0 -2.09943,-1.35259 -1.77054,-2.9874 0.005,-0.0184 0.007,-0.038 0.0115,-0.0571 l 4.67103,-21.94892 h -17.32315 c -8.85615,0 -15.76929,-6.91315 -15.76929,-15.76929 0,-0.68556 0.0422,-1.35944 0.12258,-2.01941 l 0.59533,-2.7933 c 1.98528,-6.42504 7.88121,-10.95541 15.05133,-10.95541 z" />
  </g>
</svg>
